<svg width="412" height="314" viewBox="0 0 412 314" fill="none" xmlns="http://www.w3.org/2000/svg">
<path d="M0 313.273V156.773V0.272583H412V313.273H0Z" fill="white"/>
<path d="M363.3 82.2726C364.5 82.2726 366.3 81.3726 367.2 80.2726C368.2 79.1726 369.8 78.2726 370.7 78.2726C371.7 78.2726 373 78.6726 373.6 79.0726C374.2 79.4726 375.5 81.2726 376.4 83.0726C377.3 84.8726 379.4 86.8726 381.3 87.5726C383.4 88.4726 385.1 90.2726 386.4 92.8726C387.9 96.0726 388.1 97.6726 387.4 101.773C386.7 105.773 386.1 106.773 384.6 106.773C383.2 106.773 382.4 107.773 381.8 109.973C381.3 111.973 380 113.773 378.5 114.473C377.1 115.173 375.8 115.573 375.5 115.273C375.2 114.973 375.7 112.973 376.6 110.773C377.9 107.573 378 106.073 377.1 102.973C376.5 100.973 375.3 98.9726 374.5 98.4726C373.4 97.9726 371.7 98.9726 365 105.773L366 102.273C366.5 100.373 367 97.5726 367 96.0726C367 93.7726 366.4 93.1726 364 92.5726C362.3 92.0726 361 91.2726 360.9 90.7726C360.9 90.2726 360.5 90.5726 360 91.4726C359.4 92.5726 357.8 93.2726 356 93.2726C353.7 93.2726 353 92.8726 353 91.2726C353 90.1726 353.4 88.3726 354 87.2726C354.6 86.1726 356.4 84.5726 358 83.7726C359.6 82.9726 362 82.2726 363.3 82.2726Z" fill="#ACABB3"/>
<path d="M356.5 168.873C362 167.873 366.7 166.873 367 166.573C367.3 166.273 370.4 166.373 374 166.673C377.6 167.073 380.8 167.673 381.3 168.073C381.7 168.473 382.4 172.273 382.8 176.673C383.2 180.973 383.7 184.673 384 184.773C384.3 184.973 384.2 186.873 383.9 188.973C383.5 191.073 380.4 203.373 377 216.273C373.6 229.173 369.4 245.173 367.7 251.773C366 258.373 364.3 263.973 363.9 264.273C363.5 264.573 361.9 264.673 360.3 264.573C358.8 264.473 357.2 264.373 356.8 264.373C356.3 264.273 356.2 261.673 356.5 258.573C356.8 255.373 357.2 250.073 357.5 246.773C357.8 243.473 358.1 238.073 358.3 234.773C358.5 231.473 358.9 228.373 359.3 227.773C359.6 227.173 359.7 223.573 359.5 219.773C359.3 215.973 358.8 208.873 358.3 203.973C357.9 198.973 357.1 195.373 356.5 195.573C355.9 195.773 351.2 202.973 336.5 226.873L327.5 262.273H323.3C320.9 262.273 318.8 261.973 318.6 261.573C318.3 261.073 318.8 256.673 319.6 251.773C320.4 246.873 321.7 238.073 322.5 232.273C323.7 223.473 325.2 218.573 332.1 201.273C336.5 189.973 340.9 180.173 341.8 179.573C342.9 178.773 343.2 177.673 342.8 176.573C342.4 175.373 342.9 174.073 344.3 172.673C345.9 171.173 349.4 170.073 356.5 168.873Z" fill="#ACABB3"/>
<path d="M316.1 271.273C318.2 270.773 320 269.873 320 269.273C320 268.673 320.2 268.273 320.5 268.273C320.8 268.273 321.8 268.673 322.8 269.173C324 269.873 324.4 271.073 324.3 273.673C324 277.073 323.8 277.273 320.8 277.073C319 277.073 316 276.373 314.3 275.573C312.5 274.873 311.3 273.873 311.6 273.273C311.9 272.773 314 271.873 316.1 271.273Z" fill="#ACABB3"/>
<path d="M352 276.773C352 276.473 353.5 274.773 355.3 272.873C357.4 270.673 359.4 269.573 361 269.673C363.1 269.773 363.5 270.273 364 277.273H358C354.7 277.273 352 277.073 352 276.773Z" fill="#ACABB3"/>
<path d="M191.3 114.273C192 112.873 194.1 110.973 196 110.073C199.2 108.473 203.5 108.273 243.5 108.373C267.7 108.373 290.5 108.673 294.2 109.073C298.5 109.473 301 109.373 301.1 108.773C301.1 108.273 301.4 108.473 301.7 109.273C302 110.073 303.2 111.773 304.4 113.073C306.495 115.367 306.5 116.169 306.996 196.7L307 197.273H304C302.4 197.273 301 197.173 301 197.073C301 196.873 301.7 194.573 302.5 191.773C303.7 187.773 304 180.073 304 116.273L299 111.273H196.6L192 117.273V216.273L198 222.273L234.2 222.073C266 221.773 271.1 221.573 275 220.073C277.5 219.073 281.9 216.773 290.1 211.773L259.6 211.573C239.6 211.373 229.2 210.973 229.5 210.273C229.8 209.673 244.6 209.273 270.8 209.273C302.1 209.273 311.9 208.973 312.8 208.073C313.5 207.373 314 205.573 314 204.073C314 202.273 313.2 200.773 309.5 198.373L310 123.273L312.2 122.973C313.5 122.873 318.3 124.373 331.5 130.173L331.7 164.173C331.9 186.473 332.3 198.073 333 197.773C333.6 197.473 331.8 202.573 329.1 209.073C325.4 217.673 323.8 223.273 321.5 239.273H272.8C231.4 239.273 223.5 239.073 221 237.773C219.3 236.973 217.3 234.773 216.5 232.773C215.7 230.873 215.2 228.873 215.5 228.273C215.8 227.673 231.5 227.273 259.2 227.173C283 227.073 305.2 226.773 308.5 226.373C313.1 225.873 314.5 225.373 314.7 224.073C314.9 222.673 314.3 222.273 312.2 222.273C309.6 222.273 309.5 222.173 309.7 216.773C309.9 212.473 309.7 211.273 308.5 211.273C307.7 211.273 307 212.173 307 213.273C307 214.373 306.2 216.873 303.5 222.273H290.7C283.2 222.273 277.8 222.673 277.5 223.273C277.2 223.873 262.6 224.273 236.8 224.273C200.1 224.273 196.3 224.073 194.4 222.473C193.2 221.573 191.7 219.773 191.1 218.573C190.3 216.973 190 201.173 190 166.573C190 128.773 190.3 116.173 191.3 114.273Z" fill="#FAFAFA"/>
<path d="M371.9 241.673C371.9 241.373 372.3 240.273 372.9 239.173C373.6 238.173 374.5 237.273 375 237.273C375.6 237.273 376.8 237.973 377.7 238.873C379.3 240.273 379.3 240.973 378.2 243.373C377.3 245.573 377.3 246.673 378.2 248.073C379.2 249.573 379.6 249.173 381.7 245.073C383.5 241.273 384.5 240.373 386.2 240.573C388.3 240.773 388.5 241.273 388.5 246.773C388.5 252.673 388.4 252.773 381.5 256.273L379.6 252.473C378.6 250.473 376.4 247.273 374.9 245.573C373.3 243.773 372 241.973 371.9 241.673Z" fill="#FAFAFA"/>
<path d="M385.3 264.573C385.7 263.873 387.7 262.373 389.7 261.273C391.8 260.273 393.8 259.373 394.2 259.273C394.7 259.273 395.2 259.773 395.5 260.273C395.8 260.873 395.5 261.473 395 261.773C394.4 262.073 394.2 262.973 394.5 263.773C394.8 264.573 393.6 267.073 392 269.273C389.4 272.773 388.6 273.273 385.4 273.073C382.4 272.773 382 272.473 382.4 270.773C382.7 269.673 383 267.173 383.1 265.273C383.1 262.573 383.3 262.173 383.9 263.773C384.4 265.173 384.8 265.373 385.3 264.573Z" fill="#FAFAFA"/>
<path d="M373.4 276.073C373 275.373 373 273.273 373.4 271.573C373.8 269.373 374.7 268.273 375.8 268.273C376.7 268.173 378 269.473 378.7 270.973C379.3 272.473 380.1 274.573 380.4 275.573C380.9 276.973 382.2 277.273 388 277.273C391.9 277.273 395.2 277.773 395.5 278.273C395.8 278.973 377.8 279.273 342.5 279.273C307.5 279.273 289 278.973 289 278.273C289 277.673 294.2 277.173 302.2 277.073C309.5 277.073 315.9 276.973 316.5 276.973C317.1 277.073 318.4 277.473 319.5 277.873C320.8 278.373 321.3 278.373 320.8 277.773C320.4 277.073 329.7 276.873 347.1 277.073C368.4 277.173 373.9 276.973 373.4 276.073Z" fill="#FAFAFA"/>
<path d="M354 108.773C354.6 109.073 355.2 108.773 355.5 108.273C355.9 107.773 357.8 107.273 359.8 107.273C361.8 107.273 365 107.573 366.9 107.973C368.8 108.473 370.7 109.673 371.2 110.773C371.7 111.873 373.9 113.973 376.1 115.573C378.4 117.173 380.3 119.373 380.6 121.073C381 122.573 383.2 127.373 390 139.773V157.073C390 172.973 389.9 174.273 388.3 173.873C387.3 173.573 385.5 173.373 384.3 173.373C382.5 173.273 381.9 172.573 381.8 170.573C381.5 168.173 380.9 167.673 377.5 167.073C375.3 166.673 368.7 166.373 362.8 166.373C356.8 166.273 351.1 166.673 350 167.273C348.3 168.073 348 167.973 348 166.273C348 165.173 347.4 163.073 346.8 161.673C345.8 159.573 345.8 158.173 346.8 154.673C347.8 151.073 347.7 148.673 346.5 141.073C345.6 135.973 344.7 130.973 344.5 130.073C344.1 128.473 343.1 128.373 336.8 128.873C329.6 129.473 329.3 129.373 318.5 124.373C309.7 120.373 307.3 118.773 306.4 116.573C305.7 115.073 304.5 113.073 303.6 112.273C302.7 111.473 301.9 110.473 302 110.073C302 109.573 302.8 109.273 303.7 109.273C304.7 109.273 310.9 111.073 317.5 113.173C328.4 116.673 330.3 116.973 337.5 116.573C344.1 116.173 346.2 115.573 349.5 113.273C351.7 111.773 353.4 110.073 353.2 109.373C353.1 108.773 353.4 108.473 354 108.773Z" fill="#FFEF99"/>
<path d="M388.6 184.573C389 183.573 389.2 181.773 389.1 180.573C389.1 179.273 389.4 178.273 389.8 178.273C390.2 178.273 391.1 178.773 391.8 179.473C392.5 180.173 393 181.373 393 182.073C393 182.673 392.3 183.973 391.4 184.773C390.6 185.573 389.4 186.273 388.9 186.273C388.4 186.273 388.3 185.473 388.6 184.573Z" fill="#FFEF99"/>
<path d="M289 197.973C277.7 198.173 259.7 198.173 249 197.973C238.3 197.873 247.5 197.773 269.5 197.773C291.5 197.773 300.3 197.873 289 197.973Z" fill="#FFEF99"/>
<path d="M277.6 225.473C277.2 225.073 277.1 224.173 277.4 223.573C277.9 222.573 282.8 222.273 296.5 222.273C313.6 222.273 315 222.373 314.7 224.073C314.5 225.573 312.7 225.773 296.5 225.973C286.6 226.173 278.1 225.973 277.6 225.473Z" fill="#FFEF99"/>
<path d="M356.2 93.5726C357.8 93.3726 359.3 92.4726 359.6 91.5726C360 90.4726 360.5 90.1726 360.9 90.8726C361.2 91.4726 362.7 92.2726 364.2 92.5726C366.4 93.1726 367 93.8726 367 96.0726C367 97.5726 366.6 99.7726 366.2 101.073C365.8 102.273 364.8 103.573 364 103.873C363.2 104.073 361 103.873 359.2 103.273C357.5 102.773 356 101.873 356 101.273C356 100.773 355.4 100.373 354.8 100.573C354 100.673 353.5 99.4726 353.5 97.2726C353.5 94.1726 353.8 93.7726 356.2 93.5726Z" fill="#D9C0C3"/>
<path d="M289.8 107.973C289.7 107.173 290 106.273 290.5 105.973C291 105.573 291.9 105.273 292.7 105.273C293.4 105.273 295.6 106.073 297.5 107.073C299.5 107.973 301 108.973 301 109.273C301 109.573 298.5 109.673 295.5 109.573C291.8 109.373 289.9 108.873 289.8 107.973Z" fill="#D9C0C3"/>
<path d="M347.7 167.673C348.2 167.973 349.2 167.773 350 167.173C350.8 166.673 355.1 166.273 359.4 166.273C363.8 166.273 367.1 166.473 366.9 166.673C366.7 166.873 362.7 167.773 358 168.673C353.3 169.573 348.7 170.273 347.7 170.273C346.6 170.273 346.2 169.773 346.5 168.773C346.8 167.973 347.3 167.473 347.7 167.673Z" fill="#D9C0C3"/>
<path d="M385.5 185.073C383.8 184.773 383.5 183.873 383.3 178.973C383.1 173.473 383.2 173.173 385.2 173.473C386.6 173.673 387.7 174.973 388.6 177.773C389.5 180.873 389.6 182.173 388.7 183.573C388 184.673 386.7 185.273 385.5 185.073Z" fill="#D9C0C3"/>
<path d="M321.5 268.273C321.2 267.673 321.3 266.173 321.6 264.773C322 262.973 322.8 262.273 324.6 262.273C326.9 262.273 327 262.373 325.7 265.773C325.1 267.773 323.9 269.273 323.2 269.273C322.6 269.273 321.8 268.873 321.5 268.273Z" fill="#D9C0C3"/>
<path d="M358.3 267.373C357.9 266.273 358 265.073 358.5 264.773C359 264.473 360.1 264.373 360.9 264.473C361.8 264.673 362.6 265.773 362.7 267.073C362.9 268.673 362.5 269.273 361 269.273C359.9 269.273 358.7 268.373 358.3 267.373Z" fill="#D9C0C3"/>
<path fill-rule="evenodd" clip-rule="evenodd" d="M374.2 99.1726C375.3 99.4726 376.6 101.273 377.2 103.273C378 105.973 377.9 107.573 376.6 110.473C375.7 112.673 374.5 114.073 373.8 113.773C373.1 113.573 371.9 112.173 371.3 110.773C370.6 109.373 369.3 108.273 368.5 108.273C367.7 108.273 366.8 107.473 366.5 106.473C366.1 105.373 367 103.673 369.1 101.673C371.3 99.5726 372.9 98.7726 374.2 99.1726ZM197.2 111.273H299L304 116.273V151.473C304 179.973 303.7 187.773 301 197.273L229.5 197.773L269.5 198.073C303.2 198.173 309.9 198.473 311.8 199.773C313.2 200.673 314 202.273 314 203.973C314 205.573 313.5 207.373 312.8 207.973C311.9 208.973 302.1 209.273 270.8 209.273C244.6 209.273 229.8 209.673 229.5 210.273C229.2 210.973 239.6 211.373 290.1 211.773L284.8 215.073C281.9 216.773 277.5 219.073 275 220.073C271.1 221.573 266 221.773 198 222.273L192 216.273L191.8 117.473L197.2 111.273ZM306.9 119.373L310.1 120.573C311.8 121.173 313.4 122.073 313.6 122.473C313.8 122.873 313.1 123.273 312 123.273C310 123.273 310 123.873 310 160.273C310 192.473 309.8 197.273 308.5 197.273C307.2 197.273 307 192.173 306.9 158.273V119.373ZM341.3 128.373C343.2 128.273 344.2 128.873 344.5 130.073C344.8 130.973 345.7 135.973 346.5 141.073C347.8 148.473 347.8 151.073 346.9 154.573C346 157.873 346 159.573 347 162.273C348 165.173 348 166.273 346.7 169.073C345.8 170.773 344.2 172.873 343.1 173.573C341.8 174.373 341.5 175.173 342.1 176.273C342.6 177.073 343.1 178.073 343.1 178.573C343.1 178.973 342.6 179.073 342.1 178.773C341.5 178.473 340.6 179.473 339.9 181.073C339.3 182.573 338.7 184.273 338.5 184.773C338.4 185.373 337.6 187.473 336.7 189.573C335.8 191.573 335.2 193.373 335.2 193.573C335.3 193.673 334.8 194.873 334 196.273C332.7 198.473 332.5 194.773 331.6 129.773L335.1 129.173C337 128.873 339.8 128.473 341.3 128.373ZM357.1 195.273C357.5 195.273 357.9 197.173 358 199.573C358 201.873 358.4 206.173 358.8 208.973C359.2 211.873 359.2 214.373 358.7 214.473C358.3 214.673 358.4 216.673 359 219.073C359.6 221.373 359.9 224.273 359.7 225.573C359.4 226.773 359.2 227.773 359.1 227.773C359.1 227.773 358.8 230.473 358.5 233.773C358.2 237.073 357.8 241.373 357.6 243.273C357.5 245.173 357 250.473 356.7 255.073C356.2 261.673 356.4 263.573 357.6 264.773C358.4 265.573 359.1 266.973 359.1 267.773C359.1 268.673 358.6 268.973 357.8 268.573C357 268.039 356.833 268.206 357.3 269.073C357.8 269.773 356.7 271.673 351.1 277.273H337.6C324.1 277.273 324.1 277.273 324.6 275.073C324.9 273.773 325.3 270.873 325.6 268.573C325.9 266.173 326.5 263.473 327 262.573C327.5 261.573 328.3 259.873 328.7 258.773C329.1 257.673 329.5 256.073 329.7 255.273C329.8 254.473 330.3 252.673 330.7 251.273C331.1 249.873 331.6 248.473 331.7 248.073C331.9 247.573 332.1 247.173 332.1 247.073C332.2 246.873 332.4 245.173 332.7 243.273C332.9 241.373 333.5 239.373 334 238.773C334.5 238.273 334.8 237.173 334.5 236.573C334.3 235.873 334.5 235.073 335.1 234.773C335.6 234.473 335.9 233.573 335.6 232.773C335.3 231.973 335.5 231.073 336.1 230.773C336.6 230.473 336.9 229.873 336.6 229.273C336.3 228.773 337.1 226.473 338.3 224.273C339.6 222.073 340.9 220.273 341.3 220.273C341.7 220.273 341.9 219.973 341.6 219.573C341.4 219.073 341.9 217.873 342.9 216.773C343.8 215.673 345.5 213.073 346.6 210.973C347.7 208.873 348.9 207.273 349.3 207.273C349.7 207.273 350.3 206.273 350.5 205.073C350.8 203.773 351.9 201.773 352.9 200.573C354 199.273 354.6 198.273 354.2 198.273C353.9 198.373 354.2 197.673 354.9 196.773C355.7 195.973 356.7 195.273 357.1 195.273ZM308.6 211.273C309.7 211.273 310.1 212.373 310.1 215.273C310.1 217.473 309.9 219.973 309.6 220.773C309.3 221.573 308 222.273 306.6 222.273C305.2 222.273 304.1 221.973 304.1 221.573C304.1 221.073 304.8 219.673 305.6 218.273C306.4 216.873 307 214.773 307 213.573C307.1 212.173 307.7 211.273 308.6 211.273Z" fill="white"/>
<path d="M219.8 137.873C219.7 137.073 220.3 136.173 221.1 135.973C221.8 135.673 234.2 135.373 248.5 135.273C268.6 135.173 274.8 135.473 275.7 136.473C276.4 137.173 276.7 138.073 276.3 138.573C276 138.973 263.1 139.273 247.8 139.273C224.6 139.273 220 139.073 219.8 137.873Z" fill="#FAFAFA"/>
<path d="M198.6 158.473C198.2 158.073 198.1 157.173 198.4 156.573C199 155.573 210 155.273 248.5 155.273C295.1 155.273 298 155.373 297.7 157.073C297.5 158.673 294.3 158.773 248.5 158.973C221.5 159.173 199.1 158.873 198.6 158.473Z" fill="#FAFAFA"/>
<path d="M248.3 178.073C223.6 178.273 220 178.073 220 176.773C220 175.473 223.6 175.273 248.3 175.473C266.2 175.673 276.5 176.173 276.5 176.773C276.5 177.373 266.3 177.873 248.3 178.073Z" fill="#FAFAFA"/>
<path d="M377.4 154.273C377 152.373 377.1 149.873 377.5 148.773C378.2 146.873 378.3 146.873 379 149.273C379.5 150.673 379.9 153.573 379.9 155.773C380 158.473 379.7 159.473 379 158.773C378.5 158.173 377.7 156.173 377.4 154.273Z" fill="white"/>
</svg>
