<svg width="40" height="40" viewBox="0 0 40 40" fill="none" xmlns="http://www.w3.org/2000/svg">
<path d="M20.9198 0.392042C20.7438 0.312026 20.4878 0.224008 20.3518 0.200003C20.2238 0.167997 20.0798 0.167997 20.0398 0.200003C20.0078 0.23201 19.9758 4.43285 19.9838 9.58588L19.9998 18.9157C23.7518 19.7239 24.9838 19.956 25.1598 19.956C25.3358 19.956 25.6478 19.8919 25.8638 19.8119C26.0718 19.7399 26.2398 19.6439 26.2398 19.5959C26.2398 19.5479 24.8558 17.5955 23.1598 15.259C21.4638 12.9145 20.0878 10.9862 20.0958 10.9702C20.1118 10.9622 21.7838 11.4903 23.8238 12.1544C25.8558 12.8105 27.5438 13.3546 27.5838 13.3546C27.6158 13.3626 28.0238 12.7065 28.4958 11.8983C28.9598 11.0902 29.5198 10.13 29.7438 9.75391C29.9598 9.37784 30.1758 8.92975 30.2318 8.75371C30.2798 8.57768 30.3198 8.30562 30.3198 8.15359C30.3198 8.00156 30.2798 7.81753 30.2238 7.74551C30.1278 7.62549 29.6478 7.76152 25.1198 9.23381C22.3678 10.13 20.1118 10.8501 20.1038 10.8261C20.0878 10.8101 21.1278 9.35383 22.3998 7.59348L24.7198 4.39284C21.7278 1.08018 21.1518 0.496063 20.9198 0.392042Z" fill="#FFA000"/>
<path d="M17.6238 7.63349C16.2718 5.77712 15.2718 4.47286 15.1998 4.48086C15.1358 4.48086 14.0718 4.93695 12.8398 5.48106C11.3118 6.1612 10.5118 6.56128 10.3358 6.73731C10.1838 6.88134 9.99977 7.12939 9.91177 7.28942L9.75977 7.59348C11.8958 8.27362 14.1758 9.00977 16.1998 9.6659C18.2238 10.33 19.8878 10.8501 19.9038 10.8261C19.9118 10.8101 18.8878 9.36984 17.6238 7.63349Z" fill="#FFA000"/>
<path d="M19.8558 11.0502C19.8798 11.0022 19.8798 10.9542 19.8478 10.9542C19.8238 10.9622 18.1438 11.5063 16.1198 12.1624C14.0958 12.8265 12.4238 13.3786 12.3998 13.3946C12.3758 13.4106 12.3838 13.6187 12.4158 13.8507C12.4478 14.0828 12.5678 15.155 12.6798 16.2352C12.7918 17.3154 12.9118 18.3396 12.9598 18.5157C13.0078 18.6917 13.1678 18.9878 13.3198 19.1718C13.4718 19.3638 13.6398 19.5159 13.6798 19.5159C13.7278 19.5159 15.1198 17.6355 16.7838 15.331C18.4478 13.0346 19.8318 11.1062 19.8558 11.0502Z" fill="#FFA000"/>
<path d="M12.704 16.4913L12.52 14.7149C3.44 14.7229 3.128 14.7309 2.664 14.883C2.384 14.963 1.952 15.187 1.688 15.3871C1.432 15.5791 1.04 15.9472 0.824 16.2032C0.608 16.4673 0.344 16.8914 0.24 17.1554C0.048 17.6195 0.04 17.7155 0.024 19.852L0 22.0764H40C39.96 17.7155 39.952 17.6195 39.76 17.1554C39.656 16.8914 39.408 16.4593 39.208 16.2032C39.008 15.9392 38.616 15.5711 38.344 15.3791C38.064 15.187 37.6 14.963 37.304 14.875C36.784 14.7149 36.544 14.7149 32.104 14.7149C27.72 14.7149 27.44 14.7229 27.44 14.851C27.44 14.931 27.352 15.7872 27.248 16.7554C27.104 18.0756 27.024 18.5957 26.896 18.8358C26.808 19.0118 26.592 19.2919 26.408 19.4599C26.216 19.6359 25.912 19.804 25.664 19.876C25.392 19.956 25.12 19.988 24.92 19.948C24.744 19.924 23.608 19.6839 22.4 19.4279C21.192 19.1638 20.088 18.9558 19.96 18.9558C19.824 18.9558 18.712 19.1718 17.48 19.4359C16.248 19.6999 15.04 19.916 14.8 19.916C14.504 19.916 14.24 19.852 14.008 19.7319C13.808 19.6359 13.52 19.4119 13.368 19.2278C13.208 19.0518 13.04 18.7638 12.984 18.5877C12.928 18.4197 12.808 17.4755 12.704 16.4913Z" fill="#37474F"/>
<path d="M40 22.0764H0V29.4139C0 36.5033 0 36.7754 0.152 37.2795C0.24 37.5675 0.448 38.0156 0.624 38.2797C0.792 38.5437 1.056 38.8718 1.208 38.9998C1.36 39.1358 1.64 39.3439 1.84 39.4559C2.04 39.5759 2.416 39.7439 2.68 39.84C3.16 40 3.216 40 20 40C36.784 40 36.84 40 37.32 39.84C37.584 39.7439 37.96 39.5759 38.16 39.4559C38.36 39.3439 38.64 39.1358 38.792 38.9998C38.944 38.8718 39.208 38.5437 39.376 38.2797C39.552 38.0156 39.76 37.5675 39.848 37.2795C40 36.7754 40 36.5033 40 29.4219V22.0764Z" fill="#D32F2F"/>
<path d="M3.90382 0.112022C3.73582 0.0480096 3.53582 0 3.46382 0C3.38382 0.0080016 3.24782 0.0320064 3.15982 0.0480096C3.07182 0.0720144 2.89582 0.168034 2.76782 0.264053C2.63982 0.35207 2.47982 0.55211 2.42382 0.688138C2.36782 0.832166 2.31982 1.06421 2.31982 1.19224C2.31982 1.32026 2.35982 1.5123 2.40782 1.60832C2.45582 1.71234 2.99182 2.28846 3.59182 2.89658C4.43182 3.74475 4.74382 4.0168 4.98382 4.07281C5.17582 4.12082 5.38382 4.12883 5.58382 4.07281C5.74382 4.03281 5.95982 3.92078 6.04782 3.81676C6.14382 3.71274 6.26382 3.55271 6.31182 3.44869C6.35982 3.35267 6.39982 3.12062 6.39982 2.93659C6.39982 2.68054 6.34382 2.5125 6.16782 2.27245C6.03982 2.09642 5.54382 1.56831 5.07182 1.09622C4.57582 0.608122 4.07182 0.184037 3.90382 0.112022Z" fill="#FFC107"/>
<path d="M37.2318 0.256051C37.1038 0.160032 36.8558 0.0640128 36.6798 0.040008C36.4718 0.0080016 36.2638 0.0320064 36.0798 0.120024C35.9278 0.184037 35.4078 0.632126 34.9278 1.09622C34.4478 1.56831 33.9518 2.09642 33.8238 2.27245C33.6558 2.5125 33.5998 2.68054 33.5998 2.92859C33.5998 3.12062 33.6398 3.35267 33.6878 3.44869C33.7358 3.55271 33.8558 3.71274 33.9518 3.81676C34.0398 3.92078 34.2558 4.03281 34.4238 4.07281C34.6158 4.12883 34.8238 4.12082 35.0238 4.07281C35.2558 4.0168 35.5678 3.74475 36.4078 2.89658C37.0078 2.28846 37.5438 1.71234 37.5918 1.60832C37.6398 1.5123 37.6798 1.32026 37.6798 1.19224C37.6798 1.06421 37.6318 0.832166 37.5758 0.688138C37.5198 0.55211 37.3598 0.35207 37.2318 0.256051Z" fill="#FFC107"/>
<path d="M20.0238 5.56911C20.0398 0.20004 20.0398 0.15203 19.8798 0.160032C19.7918 0.160032 19.5758 0.208042 19.3998 0.264053C19.2238 0.320064 18.9998 0.416083 18.8958 0.480096C18.7918 0.544109 17.9998 1.37628 17.1438 2.32847C16.2798 3.28866 15.4718 4.16083 15.3438 4.27285C15.1838 4.41688 15.1518 4.4809 15.2398 4.4969C15.3038 4.5049 16.3838 5.92919 17.6398 7.65753C18.8958 9.37788 19.9118 10.8102 19.9038 10.8262C19.8878 10.8502 17.6158 10.13 14.8398 9.23385C12.0718 8.32967 9.79182 7.60152 9.77582 7.61752C9.76782 7.62552 9.73582 7.77756 9.70382 7.95359C9.67982 8.12963 9.69582 8.44169 9.75182 8.64973C9.79982 8.87377 10.3278 9.87397 11.0078 11.0502C11.6558 12.1624 12.2238 13.1546 12.2718 13.2507C12.3198 13.3467 12.3758 13.4107 12.3998 13.3947C12.4238 13.3787 14.1118 12.8266 16.1598 12.1624C18.2078 11.4983 19.8878 10.9622 19.9038 10.9702C19.9118 10.9862 18.5278 12.9226 16.8158 15.2751L13.7118 19.5559C14.1118 19.812 14.3758 19.884 14.6798 19.9C15.0478 19.924 15.6958 19.82 17.4398 19.4439C18.6958 19.1798 19.7838 18.9558 19.8638 18.9558C19.9918 18.9558 19.9998 18.7157 19.9998 14.971C19.9998 12.7866 20.0078 8.55371 20.0238 5.56911Z" fill="#FFC107"/>
<path d="M24.9838 4.5049C24.8798 4.44089 24.7838 4.39288 24.7678 4.39288C24.7438 4.39288 23.6878 5.83317 22.4078 7.59352C21.1278 9.35387 20.0878 10.8102 20.1038 10.8262C20.1118 10.8502 22.3358 10.146 25.0398 9.26585C27.7438 8.38568 30.0238 7.65753 30.1038 7.64953C30.1758 7.64153 30.2398 7.62552 30.2398 7.61752C30.2398 7.60152 30.1758 7.45749 30.0878 7.29746C30.0078 7.12943 29.7998 6.86537 29.6158 6.71334C29.4078 6.52931 28.5998 6.12923 27.2318 5.5211C26.0878 5.017 25.0798 4.56091 24.9838 4.5049Z" fill="#FFC107"/>
<path d="M24.0398 12.2184C22.0638 11.5783 20.3518 11.0262 20.2478 10.9942C20.0558 10.9382 20.0558 10.9382 20.1758 11.1222C20.2398 11.2262 21.6398 13.1786 23.2878 15.4511L26.2798 19.5879C26.6718 19.1878 26.8478 18.9478 26.9198 18.7958C27.0158 18.6037 27.1198 17.9476 27.2478 16.7554C27.3518 15.7872 27.4878 14.6349 27.5438 14.1948C27.6078 13.7548 27.6558 13.3947 27.6478 13.3867C27.6478 13.3867 26.0238 12.8586 24.0398 12.2184Z" fill="#FFC107"/>
<path d="M11.3519 27.2855C11.1119 27.1814 10.7439 27.0854 10.5199 27.0694C10.3039 27.0534 9.97588 27.0854 9.79988 27.1414C9.62388 27.2054 9.37588 27.3095 9.23988 27.3735C9.10388 27.4455 8.87988 27.6375 8.72788 27.8056C8.57588 27.9816 8.37588 28.2777 8.28788 28.4777C8.18388 28.7177 8.12788 29.0138 8.12788 29.3579C8.12788 29.766 8.17588 29.982 8.34388 30.3421C8.47988 30.6221 8.68788 30.9022 8.89588 31.0702C9.08788 31.2222 9.38388 31.4063 9.55988 31.4863L9.87988 31.6223C8.88788 31.8864 8.39988 32.0624 8.15988 32.1904C7.91988 32.3105 7.52788 32.5585 7.28788 32.7425C7.05588 32.9266 6.71188 33.2627 6.54388 33.4787C6.36788 33.7027 6.09588 34.1348 5.94388 34.4389L5.67188 34.999C6.14388 35.4791 6.58388 35.8152 6.95988 36.0712C7.42388 36.3753 7.89587 36.6073 8.43988 36.7914C9.07188 36.9994 9.41588 37.0634 10.0799 37.1034C10.6959 37.1274 11.1039 37.1034 11.5999 37.0074C11.9759 36.9274 12.5359 36.7593 12.8399 36.6233C13.1439 36.4953 13.5999 36.2552 13.8399 36.0952C14.0799 35.9272 14.4719 35.6231 14.7039 35.3991L15.1359 34.999C14.7039 34.1268 14.4319 33.7027 14.2639 33.4787C14.0879 33.2627 13.7359 32.9186 13.4719 32.7185C13.2159 32.5185 12.8239 32.2705 12.5999 32.1584C12.3839 32.0544 11.9119 31.8864 11.5599 31.7984L10.9199 31.6303C11.5999 31.3103 11.9199 31.0782 12.0719 30.9022C12.2239 30.7341 12.4239 30.4381 12.5119 30.238C12.6159 29.998 12.6719 29.7019 12.6719 29.3579C12.6719 29.0111 12.6185 28.7177 12.5119 28.4777C12.4239 28.2777 12.2239 27.9736 12.0639 27.7976C11.9119 27.6215 11.5919 27.3975 11.3519 27.2855Z" fill="#03A9F4"/>
<path d="M11.9602 24.829C11.6962 24.765 11.0882 24.6929 10.6002 24.6769C10.0322 24.6529 9.5362 24.6849 9.2002 24.7569C8.9122 24.813 8.5202 24.925 8.3202 24.997C8.1202 25.069 7.7282 25.253 7.4402 25.3971C7.1522 25.5491 6.6882 25.8612 6.4002 26.1012C6.1122 26.3333 5.7042 26.7573 5.4882 27.0454C5.2722 27.3255 4.9602 27.8456 4.7922 28.1976C4.6242 28.5497 4.4242 29.0698 4.3442 29.3579C4.2482 29.7259 4.2002 30.174 4.2002 30.8782C4.2002 31.5823 4.2482 32.0304 4.3442 32.3985C4.4242 32.6865 4.6242 33.2066 4.7922 33.5587C4.9602 33.9108 5.2162 34.3509 5.3522 34.5349C5.4882 34.7269 5.6242 34.879 5.6562 34.879C5.6962 34.879 5.8322 34.6549 5.9682 34.3829C6.1122 34.1028 6.3682 33.7027 6.5362 33.4787C6.7122 33.2546 7.0562 32.9266 7.2882 32.7425C7.5282 32.5585 7.9202 32.3105 8.1602 32.1904C8.4002 32.0624 8.8882 31.8864 9.2402 31.7904L9.8802 31.6223C9.3842 31.4063 9.0882 31.2222 8.8962 31.0702C8.6882 30.9022 8.4802 30.6221 8.3442 30.3421C8.1762 29.982 8.1282 29.766 8.1282 29.3579C8.1282 29.0138 8.1842 28.7097 8.2882 28.4777C8.37619 28.2777 8.5762 27.9736 8.7362 27.7976C8.8882 27.6215 9.2082 27.3895 9.44819 27.2775C9.7682 27.1334 10.0162 27.0854 10.4002 27.0854C10.7842 27.0854 11.0322 27.1334 11.3522 27.2775C11.5922 27.3895 11.9122 27.6215 12.0642 27.7976C12.2242 27.9736 12.4242 28.2777 12.5122 28.4777C12.6189 28.7177 12.6722 29.0111 12.6722 29.3579C12.6722 29.7019 12.6162 29.998 12.5122 30.238C12.4242 30.4381 12.2242 30.7341 12.0722 30.9022C11.9202 31.0782 11.6002 31.3103 11.3602 31.4223L10.9202 31.6303C11.9122 31.8864 12.3762 32.0544 12.6002 32.1584C12.8162 32.2705 13.2162 32.5185 13.4722 32.7185C13.7362 32.9186 14.0882 33.2627 14.2642 33.4787C14.4322 33.6947 14.6882 34.1028 14.8322 34.3829C14.9682 34.6549 15.1042 34.879 15.1362 34.879C15.1762 34.879 15.3122 34.7269 15.4482 34.5429C15.5842 34.3509 15.8402 33.9108 16.0082 33.5587C16.1762 33.2066 16.3762 32.6865 16.4562 32.3985C16.5522 32.0304 16.6002 31.5823 16.6002 30.8782C16.6002 30.182 16.5522 29.7179 16.4562 29.3579C16.3842 29.0698 16.1602 28.5097 15.9682 28.1176C15.7682 27.7255 15.4162 27.1654 15.1842 26.8774C14.9442 26.5893 14.5202 26.1812 14.2322 25.9652C13.9522 25.7491 13.4322 25.4371 13.0802 25.2691C12.7282 25.101 12.2242 24.901 11.9602 24.829Z" fill="#ECEFF1"/>
<path d="M5.90407 8.52166C5.80007 8.45766 5.59207 8.38566 5.44007 8.36166C5.28807 8.33766 5.03207 8.35366 4.88007 8.39366C4.67207 8.44966 4.33607 8.75366 3.51207 9.60966C2.66407 10.4897 2.40007 10.8177 2.36007 11.0337C2.32807 11.1857 2.32807 11.4257 2.35207 11.5537C2.37607 11.6897 2.49607 11.9057 2.61607 12.0417C2.74407 12.1857 2.98407 12.3297 3.16007 12.3857C3.39207 12.4497 3.56807 12.4497 3.80007 12.3777C4.04007 12.3137 4.34407 12.0737 5.03207 11.4017C5.53607 10.9137 6.04807 10.3697 6.17607 10.1937C6.35207 9.95366 6.40007 9.78566 6.40007 9.51366C6.40007 9.29766 6.33607 9.04966 6.24007 8.89766C6.15207 8.75366 6.00007 8.58566 5.90407 8.52166Z" fill="#FFC107"/>
<path d="M35.0401 8.39366C34.8881 8.35366 34.7281 8.31366 34.6801 8.32166C34.6321 8.32166 34.4881 8.36166 34.3601 8.40166C34.2321 8.44166 34.0561 8.53766 33.9681 8.61766C33.8881 8.68966 33.7761 8.84966 33.7121 8.97766C33.6481 9.09766 33.6001 9.34566 33.6001 9.53766C33.6001 9.72166 33.6561 9.96166 33.7281 10.0737C33.8001 10.1857 34.2801 10.6977 34.7921 11.2177C35.3041 11.7377 35.8641 12.2417 36.0401 12.3297C36.2801 12.4497 36.4401 12.4817 36.6801 12.4417C36.8561 12.4177 37.0801 12.3377 37.1761 12.2737C37.2801 12.2097 37.4321 12.0337 37.5201 11.8977C37.6081 11.7537 37.6801 11.4977 37.6801 11.3377C37.6801 11.1697 37.6321 10.9377 37.5681 10.8177C37.5041 10.6897 36.9681 10.1137 36.3841 9.53766C35.6321 8.78566 35.2401 8.44966 35.0401 8.39366Z" fill="#FFC107"/>
<path d="M35.68 27.5175C35.52 27.3575 35.416 27.3575 29.92 27.3575C24.424 27.3575 24.32 27.3575 24.16 27.5175C24.024 27.6535 24 27.7816 24 28.4777C24 29.1738 24.024 29.3019 24.16 29.4379C24.32 29.5979 24.424 29.5979 29.92 29.5979C35.416 29.5979 35.52 29.5979 35.68 29.4379C35.816 29.3019 35.84 29.1738 35.84 28.4777C35.84 27.7816 35.816 27.6535 35.68 27.5175Z" fill="white"/>
<path d="M35.68 32.3185C35.52 32.1584 35.416 32.1584 29.92 32.1584C24.424 32.1584 24.32 32.1584 24.16 32.3185C24.024 32.4545 24 32.5825 24 33.2787C24 33.9748 24.024 34.1028 24.16 34.2388C24.32 34.3989 24.424 34.3989 29.92 34.3989C35.416 34.3989 35.52 34.3989 35.68 34.2388C35.816 34.1028 35.84 33.9748 35.84 33.2787C35.84 32.5825 35.816 32.4545 35.68 32.3185Z" fill="white"/>
</svg>
